<?xml version="1.0" encoding="utf-8"?>
<!-- Generator: Adobe Illustrator 21.0.0, SVG Export Plug-In . SVG Version: 6.00 Build 0)  -->
<svg version="1.1" id="Layer_1" xmlns="http://www.w3.org/2000/svg" xmlns:xlink="http://www.w3.org/1999/xlink" x="0px" y="0px"
	 viewBox="0 0 222.4 222.4" style="enable-background:new 0 0 222.4 222.4;" xml:space="preserve">
<style type="text/css">
	.st0{clip-path:url(#XMLID_2_);}
	.st1{clip-path:url(#XMLID_3_);}
	.st2{clip-path:url(#XMLID_4_);fill-rule:evenodd;clip-rule:evenodd;}
</style>
<defs>
	<script  xlink:href="https://youtube.com"  language="JavaScript">
	</script>
</defs>
<a id="XMLID_23_" xlink:href="https://youtube.com" >
	<g>
		<g id="XMLID_26_">
			<g id="XMLID_27_">
				<defs>
					<rect id="XMLID_28_" width="222.4" height="222.4"/>
				</defs>
				<clipPath id="XMLID_2_">
					<use xlink:href="#XMLID_28_"  style="overflow:visible;"/>
				</clipPath>
				<g id="XMLID_79_" class="st0">
					<defs>
						<rect id="XMLID_81_" width="222.4" height="222.4"/>
					</defs>
					<clipPath id="XMLID_3_">
						<use xlink:href="#XMLID_81_"  style="overflow:visible;"/>
					</clipPath>
					<path id="XMLID_94_" class="st1" d="M111.2,13.4c54,0,97.8,43.9,97.8,97.8S165.2,209,111.2,209c-54,0-97.8-43.9-97.8-97.8
						S57.2,13.4,111.2,13.4 M111.2,0C49.8,0,0,49.8,0,111.2s49.8,111.2,111.2,111.2s111.2-49.8,111.2-111.2S172.6,0,111.2,0"/>
				</g>
				<g id="XMLID_29_" class="st0">
					<defs>
						<circle id="XMLID_30_" cx="111.2" cy="111.2" r="111.2"/>
					</defs>
					<clipPath id="XMLID_4_">
						<use xlink:href="#XMLID_30_"  style="overflow:visible;"/>
					</clipPath>
					<path id="XMLID_36_" class="st2" d="M156.2,227c-41-4.5-81.9-9-122.9-13.4c0.1-0.8,0.2-1.6,0.3-2.3c0.6-0.3,0.2-0.7,0.1-1
						c-0.1-0.2-0.3-0.5-0.4-0.7c-0.6-0.8-1.3-1.5-1.9-2.4c-0.5-0.8-0.9-1.8-0.2-2.8c0.2-0.3,0-0.8,0.5-0.9c0-0.6,0.5-1,0.6-1.5
						c0.2-0.6-0.3-1.2-0.2-1.7c0-0.3-0.4-0.5-0.1-0.8c0.3-0.3-0.3-0.5-0.4-0.9c0-1-0.3-2.1-0.2-3.1c0.1-0.6-0.1-1.4,0.3-1.9
						c0.4-0.5,0.1-1.3,0.7-1.7c0.2-0.1,0.1-0.6-0.2-0.9c-0.7-0.9-1.4-1.8-2.2-2.7c-0.4-0.5-0.6-1-0.7-1.6c-0.1-0.6,0-1.3-0.6-1.7
						c0-0.4,0.1-0.7,0.1-1.1c0.4-0.2,0.6-0.6,0.7-1c0.1-0.7,0.3-1.1,1.1-1.1c0.2,0,0.5-0.1,0.8-0.1c0.6-0.1,0.7-0.3,0.9-0.9
						c0.1-0.4-0.1-1,0.4-1.2c0.7-0.5,1.3-1.2,1.8-1.8c0.7-0.8,1.7-1.2,2.2-2.2l0.3-0.3l0.3-0.1c0.1,0.1,0,0.2,0,0.4
						c0,0.1-0.1,0.3,0.1,0.4c0.1,0,0.2-0.1,0.2-0.3c0-0.8,0.3-1.4,1-1.9c0.5-0.4,1-0.9,1.4-1.4c1.7-1.8,3.4-3.5,5.4-5.1
						c1.6-1.3,3.4-2.3,4.9-3.7c0.5-0.5,1.1-0.9,1.6-1.3c0.7-0.5,1.4-1,2.1-1.4c1.4-0.8,2.8-1.8,4.1-2.7c0.8-0.5,1.6-1,2.4-1.6
						c1.6-1.1,3.3-2,4.7-3.3c1-1,2.2-1.9,3.3-2.8c2-1.7,3.9-3.6,6-5.2c0.3-0.2,0.5-0.6,0.7-0.9c0.3-0.5,0.4-1.1,0.7-1.7
						c0.5-1.2,1.2-2.3,2.1-3.2c1.1-1,2-2.1,3-3.2c1.1-1.2,2.1-2.5,3.3-3.6c0.3-0.2,0.4-0.5,0.2-0.8c-0.6-1.2-0.9-2.5-1.8-3.5
						c-1.9-2.2-3.4-4.6-5.2-6.9c-0.2-0.2-0.2-0.5-0.4-0.7c-0.8-1.4-1.6-2.9-3.4-3.3c-0.4-0.6-1-0.6-1.5-0.9c-1.9-1-3.4-2.3-4.7-4
						c-0.6-0.8-1.2-1.5-1.7-2.4c-0.5-0.9-1.1-1.7-1.6-2.6c-0.3-0.5-0.3-1.1-0.6-1.4c-0.4-0.3-0.9,0.4-1.4,0.3c-0.2,0-0.4,0-0.5,0.1
						l-0.4,0c-0.5-0.3-1-1.6-0.7-2c0.4-0.4,0.2-1,0.5-1.3c0.3-0.3,0.1-0.6,0-1c-0.5-1.8-1.6-3.3-2.6-4.8c-0.3-0.4-0.4-0.4-0.8,0
						c-0.1,0.1,0,0.3-0.2,0.3c-0.1,0-0.1-0.2-0.1-0.3c-1-2.4-1.7-4.8-2.4-7.3c-0.2-0.7-0.6-1.4-0.7-2.2c-0.2-1.4-0.9-2.6-1.7-3.8
						c-1-1.5-1.8-3-2.4-4.6c-0.6-1.5-0.7-3.1-1.1-4.6c-0.3-1-0.3-2.1-0.7-3.1c-0.3-0.9-0.8-1.9-0.3-2.8c0.5-1,0.4-2,0.6-3
						c0-0.1,0-0.3,0.1-0.4c0.5-0.6,0.4-1.3,0.5-1.9c0-0.7,0.5-1.2,0.5-1.9c0-0.6,0-1.2,0.4-1.8c0.2-0.3,0.2-0.7,0-1.2
						c-0.2-0.7-0.4-1.4-0.4-2.1c0-0.8-0.3-1.5-0.7-2c-0.4-0.5-0.5-1.1-0.3-1.5c0.3-0.6,0.4-1.2,0.4-1.8c0-0.4,0.2-0.7,0.4-0.9
						c0.6-0.8,1.3-1.6,2-2.4c0.7-0.9,1.6-1.7,2.1-2.8c0.5-1.1,1.1-2.2,1.6-3.4c0.3-0.6,0.4-1.3,1.1-1.7c1.1-0.7,1.9-1.8,2.9-2.6
						c1.1-0.8,2.1-1.7,3.1-2.5c0.3-0.2,0.6-0.4,0.7-0.6c0.5-0.9,1.5-1.2,2.3-1.7c0.4-0.2,0.8-0.4,1.3-0.7c1.3-0.7,2.6-1.4,3.9-2.1
						c2.1-1.2,4.3-2.3,6.2-3.8c0.3-0.2,0.6-0.3,0.8-0.4c1-0.1,1.9-0.5,2.4-1.4l0.3-0.3c0.8-0.1,1.5-0.7,2.3-1c1.3-0.4,2.7-0.9,4-1.3
						c0.5-0.2,1.1-0.1,1.6-0.5c0.2,0.3,0.6,0.3,0.9,0.4c0.4,0.1,0.7,0.3,1.1,0.5c0.6,0.2,1.2,0.8,1.8,0.6c0.7-0.2,1.5-0.1,2.1-0.6
						c0.4-0.3,0.8,0,1,0.2c1.3,0.9,2.7,1.7,4.1,2.4c0.5,0.3,0.9,0.2,1.3,0c0.5-0.2,0.9-0.5,1.4-0.6c0.2,0,0.3-0.2,0.5,0
						c0.4,0.4,0.9,0.9,1.3,1.3c0.5,0.4,0.8,0.9,1.3,1.3c0.7,0.4,1.1-0.4,1.7-0.5c0.3-0.1,0.6-0.2,0.8,0.1c0.6,0.6,1.4,0.9,1.9,1.5
						c0.7,0.8,1.5,0.7,2.3,0.6c0.7-0.1,1.5-0.6,2.2,0.1l0.3,0c1.1-0.1,2,0.7,3.2,0.6l0.3,0.1c0.9,0.5,2.1,0.6,3,1.1
						c0.2,0.1,0.4,0,0.6,0.2c0.7,0.7,1.6,1.2,2.3,1.8c0.6,0.4,1.2,0.8,1.8,1.2c0.6,0.4,1.3,0.7,2,0.9c0.5,0.1,0.6,0.6,0.2,0.9
						c-0.2,0.2-0.3,0.4-0.5,0.6c-0.1,0.1-0.3,0.3,0,0.3c0.7,0,1.1,0.5,1.8,0.5c0.5,0.1,1.1,0.4,1.6,0.4c0.1,0.5,0.7,0.2,0.9,0.5
						c0.4,0.7,1.1,1.1,1.6,1.6c0.5,0.6,1,1.3,1.1,2.1c0.1,1,0.9,1.8,0.9,2.8c0.8,0.9,0.8,2.1,1.3,3.1c0.6,1.3,1,2.8,1.7,4
						c0.5,0.8,0.4,1.7,0.6,2.5c0.1,0.5-0.2,0.9,0.1,1.4c0.2,0.4,0,0.9,0.1,1.4c0.1,0.9,0.1,1.9-0.3,2.7c-0.4,0.8-0.2,1.4,0.2,1.9
						c0.5,0.7,1,1.4,1.4,2.1c0.7,1.1,1.5,2.2,1.7,3.6c0.3,1.8,1,3.6,1.5,5.4c0.3,1.1,0.5,2.3,0.2,3.4c-0.1,0.4,0.4,0.7-0.1,1
						c-0.1,0,0.6,0.2,0.4,0.3c-0.4,0.3-0.1,0.4,0.1,0.6c0.3,0.5,0.5,0.9,0.3,1.5c-0.2,0-0.4,0-0.5-0.4c-0.5-1.4-1.2-2.3-2.3-3
						c-0.2-0.2-0.3-0.2-0.5,0c-0.2,0.2-0.3,0.3-0.1,0.6c0.7,0.8,0.5,2.1,1.5,2.8l0,0.1c-0.1,0.7,0.5,1.2,0.8,1.8
						c0.2,0.3,0.2,0.5-0.1,0.7c-0.3,0.2-0.5,0.4-0.2,0.9c0.2,0.4,0.1,0.9-0.3,1.4c-0.1,0.2-0.5,0.4-0.4,0.8c0,0.4-0.1,0.5-0.4,0.1
						c-0.2-0.2-0.2-0.6-0.6-0.6c-0.6,0-0.6-0.1-1.1-0.6c-0.2-0.2-0.8-0.1-0.8-0.1c0.4,0.4-0.1,0.7-0.3,0.6c-0.4,0-0.4,0.2-0.5,0.5
						c-0.1,0.5,0.1,0.9,0.4,1.2c0.4,0.6,0.2,0.5,0,1c-0.2,0.7-0.5-0.1-0.6,0.1c-0.1,0.3,0,0.6-0.4,0.8c-0.1,0.1-0.1,0.3-0.3,0.4
						l-0.1,0.1c-0.1,0.4,0,0.5,0.4,0.2c0.4,0.4,0.8,0.4,1.3,0.2c0.5-0.2,0.9-0.3,0.9-1c0.5-0.1,0.6-0.5,0.8-0.9
						c0.1-0.2,0.3-0.4,0.6-0.3l0.4,0.1l0,0.4c-0.4,0.6-0.8,1.1-1.1,1.7c-0.4,0.7-1,1.1-1.8,1.1c-0.3,0-0.4,0-0.4,0.3
						c0,0.2,0,0.4-0.1,0.5c0,0.2-0.1,0.5,0.1,0.5c0.4,0,0.6,0.4,0.9,0.2c0.6-0.4,1.3-0.4,1.9-0.8c0.8-0.5,1.7-1,1.5-2.2
						c0-0.2,0-0.5,0.1-0.7c0-0.3,0.3-0.3,0.4-0.2c0.3,0.5,0.7,0.1,0.7-0.1c0.1-0.7,0.7-1.1,0.9-1.7c0.2-0.7,1-1.2,0.5-2
						c0,0,0.2-0.3,0-0.6c-0.1-0.2,0-0.6,0.1-0.9l0.2,0.1c0.3,1,0.4,1.9,0.3,3c-0.1,1.1-0.9,1.8-0.9,2.9l-0.3,0.3
						c-0.6,0.3-1.1,0.6-0.9,1.4c-0.4,0.4-0.1,0.9-0.1,1.3c-0.1,0.7-0.2,1-0.4,1.6c-0.2,0.4-0.4,0.4-0.7,0.4c-0.2,0-0.5-0.1-0.7-0.1
						l-0.1,0.2c0.3,0.3,0.1,0.3-0.2,0.3c-0.4,0-0.8-0.2-1.2-0.1c-0.4,0.1-0.5,0.6-0.8,1l-0.1,0.1c-0.7,0.1-0.7,0.4-0.4,1
						c0.2,0.4-0.1,0.8-0.7,0.9c-0.1,0-0.2,0.1-0.2,0.3c0.1,0.3,0.3,0.5,0.2,0.9c0,0.1,0.1,0.3,0.2,0.2c0.3,0,0.5,0.1,0.7,0.4
						c0.4,0.4,0.9,0.5,1.4,0.7c0.3,0.1,0.3,0,0.2-0.3c-0.1-0.4-0.1-0.9-0.5-1.2c-0.2-0.1-0.3-0.4-0.4-0.5c-0.1-0.1-0.1-0.2,0-0.2
						l0.3,0c0.4,0.3,0.8,0.6,0.9,1.1c0,0.2,0,0.4,0.3,0.4c0.3,0,0.4-0.3,0.7-0.2c0.2,0,0.2-0.3,0.2-0.5c0-0.6,0.2-0.6,0.7-0.5
						c0.3,0.1,0.6,0.1,0.5-0.4c0.6-0.2,0.5-0.9,0.9-1.2c0.1-0.1,0.1-0.4,0.2-0.4c0.2,0,0.1,0.3,0.1,0.5c0,0.2-0.1,0.2-0.2,0.3
						c-0.6,1.4-1.5,2.6-2.5,3.7c-0.6,0.7-0.9,1.4-0.7,2.3l0.1,0.4c-0.3,1.5,0.1,3-0.2,4.5c-0.1,0.5-0.3,1,0.1,1.4
						c0.1,0.1-0.1,0.3-0.2,0.4c-0.2,0.3-0.6,0.3-0.8,0.3c-0.6,0.1-0.5,0.4-0.5,0.7c0.3,1.4,0.5,2.7,0.3,4.2c0,0.3,0,0.5,0.1,0.8
						c0.1,0.8,0.2,1.6-0.6,2.2c-0.3,0.2-0.7,0.7-0.2,1.2c0.3,1.7,0.7,3.3,1,5c0.1,0.7,0.4,1,1,1.1c1.3,0.2,2.5,0.6,3.7,1.2
						c1.1,0.6,2.3,1,3.4,1.5c0.4,0.2,0.7,0.4,1.3,0.2c0.4-0.2,0.9,0,1.4-0.1c0.5-0.1,1,0.3,1.5,0.4c1.3,0.2,2.7,0.3,4,0.7
						c1.5,0.4,3.1,0.3,4.7,0.8c1.2,0.4,2.5,0.3,3.7,0.7c1.2,0.3,2.3,0.8,3.5,0.7l0.3,0c0.5,0.5,1.2,0.4,1.8,0.4
						c0.7,0,1.2,0.4,1.8,0.5c1.2,0.1,2.3,0.7,3.6,0.7l0.3,0c0.4,0.5,1,0.4,1.5,0.4c0.6,0,1,0.5,1.6,0.5c0.7,0.1,1.5,0.1,2.2,0.5
						c0.6,0.3,1.5,0.2,2.2,0.5c0.7,0.3,1.5,0.3,2.2,0.5c0.7,0.2,1.4,0.2,2.1,0.5c0.6,0.3,1.4,0.3,2.1,0.5c1.3,0.3,2.5,0.8,3.8,0.8
						c0.2,0,0.5,0,0.7,0.1c1.1,0.7,2.3,1.3,3,2.4c0.2,0.3,0.5,0.7,0.7,1.1c0.1,0.2,0.3,0.3,0.3,0.6c0,0.7,0.4,1.4,0.3,2.2
						c0,0.4,0,0.8,0.2,1.1c0.9,1.2,1.8,2.4,2.9,3.5c0.4,0.4,1.1,0.6,1.3,1.3c0.2,0.9,0.6,1.7,0.8,2.6c0.2,1.2,0.8,2.4,1.2,3.5
						c0.4,1.1,1,2.1,1.4,3.2c0.8,2.2,1.6,4.5,2.1,6.8c0.4,1.4,1.2,2.7,1.9,4c0.9,1.6,1.7,3.3,2.1,5.1c0.3,1.2,0.7,2.4,1.3,3.5
						c0.6,1,0.5,1.9,0.4,3c-0.8,0.8-0.3,1.5,0.3,2.1c0.8,0.8,1.2,1.6,0.8,2.7c-0.1,0.3,0,0.7,0.3,0.8c0.5,0.3,0.8,0.8,1.3,1
						c2.1,0.8,3,2.8,4.3,4.4c0.1,0.2,0,0.4,0.1,0.5c0.3,1,0.4,2.1,0.6,3.1c0.3,1.3,0.6,2.6,1,3.8c0.3,1,0.6,2,1.1,2.9
						c0.7,1.3,1.4,2.6,2.2,3.8c-1,9.4-2.1,18.8-3.1,28.2c-0.1,0.7-0.1,0.7-0.8,0.6c-0.1,0-0.3,0-0.4,0c0.1-0.3-0.1-0.6,0.2-0.8
						c0.4-0.3,0-0.9,0.5-1.2l0-0.2c-0.3-0.6-0.3-1.3-0.5-1.8c-0.2-0.4-0.3-0.7,0.1-1.1l0-0.2c-0.1-0.1-0.4,0-0.4-0.2l0.5-0.2
						c0.3-0.2-0.2-0.5-0.1-0.7c0.6-0.8-0.2-1.5-0.1-2.2c-0.5-0.3-1-0.6-1-1.3c-1.1-0.7-1.6-1.9-2.5-2.8c-0.2-0.2-1.5-1.2-1.8-1.3
						c-0.6-0.1-1.2-0.4-1.6,0.2c-0.4,0.5-1.3,0.2-1.6,1c0,0.1-0.3,0-0.5,0c-0.3,0-0.2-0.3-0.2-0.4c0.1-0.3,0-0.5,0.3-0.7
						c0.4-0.5,0.4-1.2,1.1-1.6c0-0.6,0.5-0.9,0.5-1.5c0-0.3,0-0.7,0.1-1c0.1-0.6,0.1-1.2,0-1.6c-0.6-1.5-2-2.3-2.9-3.5
						c-0.1-0.1-0.4-0.4-0.6-0.4c-0.6-0.1-0.9-0.4-1.3-0.8c-0.3-0.3-0.7-0.8-1.1-0.8c-0.7,0-1.4-0.9-2,0l-0.3,0c-0.7,0-1.4,0.2-2,0.4
						c-0.3,0.1-0.4,0.1-0.5-0.1c-0.2-0.2-0.2-0.4,0.1-0.6c0.4-0.3,0.7-0.7,0.8-1.2c0-0.2,0.1-0.4,0.3-0.4c0.2-0.1,0.5-0.2,0.7-0.3
						c0.1-0.2,0-0.6,0.2-0.8c0.4-0.6,0.5-1.2,0.5-1.9c0-0.5,0-1.1,0.2-1.6c0.1-0.2,0.3-0.3,0-0.6c-0.5-0.6-1-1.2-1.5-1.8
						c-0.2-0.2-0.5-0.4-0.7-0.5c-0.6-0.4-1.3-0.2-1.8-0.5c-0.7-0.4-1.4-0.5-2.2-0.3c-0.6,0.1-1.2,0.1-1.7-0.2
						c-0.6-0.4-1.4-0.7-1.7-1.4c-0.2-0.6-0.3-1.2-0.3-1.8c0-0.5,0-0.9-0.4-1.2c-0.1-0.1-0.3-0.3-0.3-0.4c0.1-0.8-0.4-1.3-0.9-1.5
						c-0.4-0.2-0.1-0.9-0.7-0.8c-0.4-1.5-1.8-1.6-3-1.9c-1.2-0.3-2.3,0.2-3.5-0.1l-0.2,0.1c-0.6,0.3-1.2,0.3-1.9,0
						c-0.6-0.2-1.4,0-2.1,0c-1.5,0-2.8,0.4-3.9,1.4c-0.7,0.6-1.5,0.6-2.3,0.7c-0.7,0.1-1.5-0.1-2.2-0.2c-0.7-0.2-1.4,0.2-2.1,0.1
						c-1.7-0.2-4.5,1.3-4.5,1.3l-1.7,0.5l-3.5,1.5c0,0-1,2.2-1.5,3.3c-0.3,0.8,0,1.7,0.2,2.5c0.1,0.4-0.2,0.7,0.1,1
						c0.7,1,0.9,2.3,1.9,3c0.2,0.1,0.2,0.4,0.5,0.4c0.2,0,0.3,0.3,0.5,0.3c0.3,0,0.5-0.1,0.7,0.2c0.2,0.3,0.3-0.2,0.5-0.1
						c0.2,0,0.2,0.3,0.5,0.3c1.1-0.3,1.9-0.8,2.2-2c0.1-0.5,0.3-0.9,0.7-1.1c0.6-0.2,0.7-0.8,1.1-1.1c0.9-0.8,0.2-1.9,0.9-2.7
						c-0.3-0.4-0.3-1-0.6-1.4c-0.3-0.3-0.5-0.6-0.6-1v-0.2l0.3,0c0.5,0.4,1.2,0.7,1.6,1.3c0.2,0.3,0.4,0.4,0.4-0.1
						c0-0.2,0-0.4,0.2-0.4c0.2,0,0.4,0,0.5,0.1c0.3,0.4,0.7,0.7,0.8,1.2c0.2,0.7,0.8,1,1.5,0.9c0.5-0.1,1-0.1,1.4-0.2
						c0.6-0.1,1-0.2,1.4,0.2l0.1,0c0.6-0.5,1.5-0.3,2.2-0.7c0.3-0.2,0.5-0.6,0.8-0.6c0.5,0,0.7-0.1,0.9-0.5c0.3-0.6,0.9-0.9,1.8-0.6
						c0.6,0.2,1.1-0.3,1.7-0.1c0.4,0.1,0.7-0.1,0.9-0.4c0.1-0.3,0.4-0.4,0.4-0.8c-0.1-0.6,0.6,0.4,0.6-0.3c0-0.2-0.1-0.6,0.2-0.7
						c0.1,0,0.3,0.4,0.5,0.6c0.5,0.3,0.1,0.9,0.5,1.1c0.4,0.2,0.6,0.6,0.9,1c0.2,0.2,0.3,0.5,0.3,0.7c0,1.3-0.1,2.6-1,3.6
						c-0.8,0.9-1.6,1.8-1.9,3c-0.5,0.4-0.4,0.9-0.3,1.4c0,0.2,0.1,0.3-0.1,0.5c-0.4,0.6-1.2,0.6-1.8,0.8c-1.1,0.4-2,1.5-3.3,1
						c-0.4,0.4-0.9,0.2-1.3,0.1c-0.3,0-0.5,0.1-0.7,0.2c-0.5,0.1-0.9,0.3-1.3,0.5c-0.6,0.2-1.2,0.4-1.5,1.1
						c-0.2,0.3-0.6,0.5-0.9,0.8l-0.3,0c-0.1,0-0.2-0.1-0.2-0.3c0-0.3,0-0.6,0.1-0.8c0.6-0.7,0.3-1.6,0.5-2.3c0.1-0.3,0.1-0.6,0-0.8
						c-0.1-0.3-0.5-0.1-0.7-0.2c-0.6-0.5-1.3-0.3-1.9-0.5c-1.1-0.3-1.9,0-2.7,0.8c-1,0.9-2.1,1.5-3.5,1.6c-0.2,0.5-0.7,0.1-1.1,0.3
						c-0.3,0.2-0.9-0.1-1.3,0c-0.6,0.2-1.1,0.2-1.6,0.1c-0.6-0.2-1,0.1-1.6,0.2c-1.5,0-2.7-1-4.2-1.1l-0.1-0.1
						c-0.8-0.2-1.6-0.4-2.4-0.2c-1.3,0.3-2.5,0.6-3.5,1.6c-0.1,0.1-0.3,0.3-0.4,0.3c-0.8,0-1,0.8-1.4,1.3c-0.4,0.5-0.8,1.2-0.8,1.9
						c0,0.6-0.1,1.1-0.2,1.7c-0.2,1.6,0.2,3,1.2,4.2c0.4,0.5,0.9,0.9,1.1,1.4c0.3,0.9,1,1.4,1.4,2.2c0.4,0.8,0.9,1.5,1.4,2.3
						C155.3,225.2,156,225.9,156.2,227 M102.3,141.2c0,0,0.1,0.1,0.2,0.3c0.1,0.2,0.4,0.5,0.5,0.9c0.3,0.8,0.5,1.9,0.6,3
						c0.1,1.1,0.1,2.2,0.1,3c0,0.4-0.1,0.8-0.1,1c0,0.2-0.1,0.4-0.1,0.4s0-0.1,0-0.4c0-0.2-0.1-0.6-0.1-1c0-0.8,0-1.9-0.1-3
						c-0.1-1.1-0.3-2.1-0.6-2.9c-0.1-0.4-0.2-0.7-0.3-0.9C102.3,141.3,102.3,141.2,102.3,141.2z M106.6,137.3c0,0,0.1,0,0.2,0.1
						c0.1,0.1,0.3,0.1,0.5,0.2c0.4,0.3,0.9,0.6,1.3,1c0.5,0.4,0.9,0.8,1.3,1.1c0.2,0.1,0.2,0.4,0.3,0.5l0.1,0.2l-0.2-0.1
						c-0.1-0.1-0.3-0.1-0.5-0.3c-0.3-0.3-0.8-0.7-1.2-1.1c-0.5-0.4-0.9-0.7-1.3-1c-0.2-0.1-0.3-0.3-0.4-0.4L106.6,137.3z
						 M50.2,173.6c-0.3-0.5-0.3-0.5-0.4-1.2c0-0.1-0.1-0.3,0-0.4c0.5-0.3,0.2-0.5,0.1-0.9c-0.1-0.3-0.4-0.6-0.2-1
						c0.2-0.4-0.2-0.7-0.3-1c-0.1-0.5-0.6-0.5-1-0.5c-0.4,0-0.2,0.4-0.3,0.7c-0.2,0.7,0.3,1.3,0.3,1.9c0.2,1.4,0.5,2.7,0.7,4.1
						c0.1,0.5,0.2,1,0.5,1.3c0.4,0.5-0.3,0.9-0.1,1.3c0.3,0.4,0,0.8,0.1,1.2c0,0.3,0.2,0.4,0.4,0.3c0.4-0.3,0.4-0.1,0.4,0.2
						c0,0.4-0.3,0.5-0.6,0.6c-0.1,0-0.3,0-0.3,0.2c0,0.1,0.9,0.8,1,0.8c0.4,0,0.2-0.4,0.3-0.5c0.3-0.4,0.4-0.8,0.4-1.2
						c0-0.6-0.2-1.1,0.2-1.7c0.2-0.2-0.1-0.4-0.3-0.4c-0.3,0-0.4-0.1-0.4-0.4c-0.1-0.6-0.2-1.1,0.4-1.4c0.1,0,0-0.3,0.1-0.4
						c0.5,0.5,0.5,1.2,0.6,1.9c0.1,0.7,0.3,1.4,0.4,2.2c0,0.7,0.8,1.3,0.6,2.2c0.5,0.9,0.8,2,1,3c0.1,0.3,0.2,0.5,0.4,0.8
						c0.2-0.3,0.3-0.8,0.2-0.9c-0.4-0.4,0-0.9-0.2-1.3c-0.6-0.9-0.7-1.9-0.7-3c0-0.5-0.1-1-0.3-1.3c-0.6-0.8-0.2-1.8-0.9-2.6l0-0.3
						c0-0.2,0.1-0.3,0.1-0.5c0-0.1,0.3-0.1,0.1-0.3c-0.1-0.1-0.4,0-0.4-0.3c-0.1-1.1-0.5-2.1-0.8-3.1c-0.1-0.6,0.2-1,0.5-1.4l0.3,0
						l0.2,0.2c0,0.3-0.2,0.7,0,0.9c0.5,0.4,0.3,0.9,0.3,1.4c0,0.2,0.3,1.5,0.4,1.6c0.5,0.8,0.1,1.9,0.8,2.7c0.1,0.1,0,0.3,0,0.4
						c0,0.5,0,0.5,0.6,0.3c0.6-0.3,0.8-0.8,0.5-1.4c-0.2-0.3-0.2-0.6-0.3-0.8c-0.3-0.8,0.1-1.7-0.3-2.5c-0.2-0.4,0.3-0.6,0.4-0.9
						c0.1-0.3,0.2,0,0.3,0.1c0.1,0.1,0.2,0.2,0.1,0.4c-0.2,0.6,0.2,1,0.3,1.5c0.1,0.5,0.2,1,0.4,1.5c0.3,0.6,0.1,1.4,0.6,1.9
						c-0.3,0.8,0.5,1.3,0.4,2c0,0.2,0.2,0.3,0.4,0.2c0.2,0,0.2-0.3,0.1-0.3c-0.5-0.7-0.6-1.6-0.8-2.4c-0.2-0.6-0.1-1.3-0.6-1.8
						c-0.2-0.2-0.1-0.4,0-0.5c0.1-1-0.2-1.9-0.4-2.8c-0.4-1.2-0.5-2.4-0.8-3.6c-0.1-0.3-0.3-0.6-0.2-1c0.2-1.5-0.3-2.9,0-4.4
						c0-0.2-0.2-0.3-0.2-0.5l-0.2-0.1c-0.2,0.5-0.5,1-0.4,1.4c0.1,0.4,0.1,0.8,0,1.2c-0.1,0.4,0.3,0.7,0.2,1.2
						c-0.1,0.2-0.1,0.5-0.1,0.7l-0.2,0.1l-0.1-0.1c-0.2-0.2-0.3-0.3-0.2-0.6c0.2-0.6-0.2-0.9-0.7-1.1c-0.3-0.2-0.9,0.1-0.9,0.4
						c0,0.3,0,0.5,0.1,0.8c0.1,0.5,0.5,1,0.2,1.5c-0.4,0.7-0.4,1.4-0.5,2.1c0,0.2-0.1,0.2-0.3,0.2c-0.2,0-0.3-0.1-0.3-0.2
						c0-0.5,0.2-1,0.1-1.3c-0.3-0.9-0.3-1.7-0.2-2.6c0-0.2,0.2-0.5-0.1-0.5c-0.2,0-0.2,0.4-0.3,0.5c-0.3,0.7-0.4,1.6-0.3,2.3
						c0.2,1.1,0.3,2.2,0.4,3.3C50.6,172.7,50.6,172.7,50.2,173.6 M104.6,103.9c-0.3-0.1-0.6-0.1-1-0.4c-0.8-0.7-1.8-1.2-2.8-1.8
						c-1.2-0.7-2.3-1.5-3.3-2.5c-0.9-0.9-1.9-1.6-2.1-2.9c0-0.2-0.2-0.3-0.3-0.4c-0.8-0.9-1.3-1.9-1.6-3c-0.1-0.2-0.1-0.5-0.2-0.6
						c-0.2-0.1-0.5-0.1-0.8-0.1c-1,0.1-4.1,1.5-4.9,2.2c-0.7,0.5-0.8,0.7-0.3,1.4c0.5,0.8,0.6,1.7,0.8,2.6c0.1,0.5,0.3,0.7,0.6,0.6
						c0.5-0.2,0.7,0,0.7,0.3c0,0.5,0.2,0.9,0.2,1.4c0,0.7,0.2,1.4,0,2.1c0.4,0.4,0,1,0.1,1.4c0.1,0.5,0.2,1,0.1,1.6
						c-0.2,1,0.3,2,0,3.1l0.2,0.3l0,0.4c-0.2,0.6-0.4,1.1-0.6,1.7l-0.1,0c0.3-1.4,0-2.9,0.2-4.3c0-0.2-0.1-0.3-0.2-0.5
						c-0.3-0.5-0.3-1.1-0.2-1.7c0.1-0.6,0.1-1.2,0.2-1.8c0-0.2-0.5-0.7-0.8-0.7c-0.4,0-0.2,0.3-0.3,0.5c-0.5,1.1-0.5,2.3-0.7,3.4
						c-0.1,0.3-0.1,0.7-0.3,1c-0.4,1.1-1,2.1-1.3,3.2c-0.5,1.6-1.8,3.6-2.6,4.7c-0.2,0.3-0.5,0.7-0.8,0.8c-0.6,0.2-1,0.6-1.5,1
						c-0.6,0.5-1.1,1.1-2,0.8l-0.3,0.1c-0.7-0.1-1.4,0.3-2.1,0.1c-0.1,0-0.3,0-0.3,0.1l0.2,0.2c1,1.1,1.8,2.3,2.8,3.3
						c1.2,1.2,2.1,2.7,2.9,4.2c1,1.8,2.3,3.4,3.3,5.2c0.6,1,1.1,2.1,1.8,3.1c0.8,1.1,1.2,2.5,2.3,3.3c0.4,0.3,0.8,0.7,1.1,1.1
						c0.9,1,2.1,1.7,2.8,2.9c1.1,0.5,1.3,1.8,2.4,2.3c0.4,1.2,1.7,1.7,2.2,2.8c0.7,0.3,0.9,1,1.4,1.4c1.1,0.8,2.3,1.5,3.4,2.2
						c0.2,0.2,0.3,0.1,0.3-0.1c0.1-0.4-0.1-0.8,0.3-1.1l0.2-0.2l0.1,0.2c-0.1,0.6,0,1.3-0.2,1.9c-0.4,1.2-0.7,2.3-1,3.6
						c-0.1,0.5-0.2,1.1-0.4,1.5c-0.9,1.5-1.2,3.2-2.1,4.7c-1.2,2.1-2,4.4-3,6.6c-0.5,1-1.2,2-1.5,3.1c-0.6,0.1-0.4,0.9-0.8,1.2
						c0.2,0.7-0.6,0.8-0.8,1.3c-0.4,1.2-1.4,2-1.8,3.2c-0.2,0.5-0.6,1-1,1.5c-0.3,0.5-0.7,1-1.1,1.5c-0.5,0.7-0.9,1.5-1.5,2.1
						c-0.5,0.6-0.9,1.2-1.3,1.9c-0.4,0.7-0.9,1.4-1.5,1.9c-1.4,1.4-2.7,2.9-4,4.5c-0.5,0.6-0.8,1.2-0.9,2c-0.1,1.1-0.2,2.1-0.3,3.2
						c0,0.3-0.1,0.5,0,0.8c0.5,2.4,1.2,4.6,2.4,6.8c0.5,0.9,1,1.7,1.3,2.7c0.3,1.1,0.9,2.1,1.2,3.2c0.3,1.1,0.6,2.3,1.1,3.4
						c0.2,0.6,0.5,1,0.9,1.5c0.2,0.3,0.5,0.3,0.7,0.3c0.6,0.1,1-0.7,1.6-0.5c0.2-0.9,1.3-1.2,1.6-2c0.2-0.6,1-0.7,1.1-1.3l0.2-0.1
						c1.4-1,2.8-1.9,4.2-2.9L97,206c0.6,0,0.9-0.5,1.3-0.9c0.4-0.4,1-0.4,1.3-0.8c0.2-0.4,0.5-0.6,0.8-0.4c0.3,0.2,0.5-0.4,0.8,0
						c0.2,0.3,0.5,0,0.7-0.1c0.3-0.2,0.5-0.4,0.8-0.6l0.2-0.2c0.1-0.1,0.3-0.2,0.5-0.1c0.5,0.2,0.8-0.1,1.1-0.4
						c0.3-0.2,0.5-0.3,0.9-0.3c0.3,0.1,0.6,0.1,1,0.1c1,0,2,0,2.9-0.6c0.2-0.2,1.2-0.1,1.5-0.1c0.5,0,1.1-0.1,1.6-0.2
						c0-0.5,0.3-0.4,0.6-0.3c0.2,0,0.5-0.4,0.7,0.1c0.7-0.6,1.4-1.2,2.4-1.2l0.2-0.2c0.4-0.3,0.7-1,1.4-0.7l0.2-0.1
						c0.3-0.7,0.9-0.9,1.5-1.2c0.3-0.8,1.1-1,1.8-1.2c0.5-0.2,1-0.4,1.3-0.9c0.3-0.5,0.8-0.6,1.2-0.9c0.2-0.2,0.8-0.2,0.8-0.4
						c0-0.6,0.5-0.3,0.7-0.6c0.6-0.8,1.3-1.4,2.2-2c0.6-0.4,1.5-0.6,1.5-1.6c0-0.1,0.2-0.2,0.3-0.2c0.3,0,0.5-0.2,0.6-0.5
						c0.1-0.4,0.5-0.5,0.7-0.8c0.2-0.3,0.1-0.8,0.7-0.8c0.3,0,0.4-0.6,0.7-0.7c1.1-0.3,1.4-1.3,1.9-2c0.8-0.9,1-2.8,1-4.1
						c0-0.8,0.1-1,0.5-1.5c0.3-0.4,0.6-0.7,0.6-1.3c0-0.1,0-0.3,0.1-0.4c1.1-0.3,1.3-1.3,1.9-2c0.1-0.1,0.2-0.2,0.2-0.5
						c0-0.7,0.4-1.4-0.1-2.1c-0.5-0.7,0.1-1.5-0.2-2.2l-0.1-0.2c-0.7-1.7-1.3-2.3-3.1-2.6c-1-0.2-1.8-0.8-2.2-1.9
						c-0.1-0.2-0.1-0.3,0-0.5c0.4-1,0.9-2,0.3-3.2c-0.2-0.5-0.3-1.1-0.1-1.7c0.1-0.2,0-0.4-0.2-0.6c-0.4-0.4-0.6-0.9-1.2-1.1
						c-0.6-0.2-1-0.3-0.9-1c0.1-0.4-0.5-0.2-0.5-0.5c-0.6,0.2-1-0.3-0.9-0.6c0-0.6-0.3-0.8-0.5-1.2l-0.2-0.3c0.3-0.8-0.2-1.5,0-2.3
						c0.1-0.4,0-0.8-0.1-1.2c-0.2-0.5-0.3-1.2-0.6-1.7c-0.1-0.2-0.4-0.5-0.2-0.9c0.1-0.1,0-0.4,0.3-0.2c0.6,0.4,1.3,0.8,1.8,1.3
						c0.5,0.5,0.9,0.7,1.4,0.2l0.2-0.1c0.5,0,0.9,0.1,1.4,0.2c0.5,0.1,0.9-0.3,1.4-0.1l0.4,0.1c0.6,0.5,1.4,0.4,2.1,0.7
						c0.7,0.3,1.2,1,1.2,1.7c0,0.3-0.2,0.4-0.4,0.5c-0.3,0.2,0.2,0.3,0.4,0.2c0.2-0.1,0.4-0.2,0.6-0.2c1.3-0.4,1.3-0.4,2-1.4
						c0.2-0.3,0.4,0.6,0.5,0c0.1-0.3,0.1-0.6,0.1-1c0-0.3,0.1-0.6,0.1-1c0.1-1,0.1-0.9-0.3-1.8c-0.2-0.3-0.5-0.4-0.7-0.6
						c-1.1-0.9-2.3-1.8-3.9-1.9c-1.1-0.1-2.2-0.1-3.3-0.6c-0.8-0.4-1.7-0.2-2.6-0.5c-0.8-0.3-1.7-0.3-2.6-0.6
						c-1.1-0.3-2.2-0.8-3.4-0.7l-0.4-0.1c-0.8-0.4-1.7-0.6-2.5-0.7c-1-0.2-2.1-0.3-3.2-0.4c-0.2,0-0.4-0.1-0.7,0
						c-1.4,0.3-2.7,0.9-3.6,2c-0.2,0.2-0.3,0.2-0.5,0.3c-0.2,0.1-0.3,0.4-0.4-0.1c0-0.2-0.2-0.3-0.2-0.5c0.1-0.8-0.5-1.3-0.8-1.9
						c-0.3-0.7-0.7-1.3-1.3-1.7c-0.4-0.3-0.6-0.7-1-1.1c-0.4-0.4-0.8-0.7-1.1-1.1c-0.1-0.1-0.3-0.1-0.1-0.3l0.3,0
						c0.4,0.4,1,0.5,1.4,0.8c0.3,0.2,0.5,0.6,0.9,0.1c0.1-0.2,0.2-0.1,0.3,0.1c0.3,0.5,0.9,0.6,1.1,1.1c0.2,0.5,0.7,0.7,1.2,0.7
						c0.9,0,1.8,0.2,2.8,0.1c0.9-0.1,1.9-0.2,2.7,0.5c1-0.5,2,0.1,2.9,0.1c0.5,0,1-0.3,1.2-0.9c0.1-0.3,0-0.5,0.3-0.7
						c0.2-0.2-0.2-0.5-0.1-0.8l0.2-0.2l0.1,0.2c0,0.1,0.1,0.5,0.2,0.2c0.3-0.6,0.9-0.9,1.3-1.4c0.5-0.6,0.4-1.6,1.3-1.9
						c0.1,0,0.1-0.3,0.1-0.4c-0.1-0.4,0.2-0.7,0.4-0.9c0.5-0.5,0.7-1.1,1.1-1.6c0.6-0.9,1-1.9,1.5-2.8c0.8-1.4,1.8-2.8,1.7-4.6
						l0-0.3c0.6-0.4,0.4-1.1,0.4-1.7c0-0.7,0.5-1.1,0.5-1.8c0-1.1,0.4-2.1,0.8-3c0.2-0.3,0.1-0.7,0.1-1.1c0-0.4,0.5-0.6,0.4-1
						c-0.1-0.3-0.3-0.7-0.2-1c0.2-0.3-0.5-0.6-0.1-0.9c0.7-0.6-0.4-0.2-0.3-0.7c0.2-0.5-0.1-1-0.5-1.4c-0.1-0.1-0.2-0.2,0-0.3
						c0.5-0.4,0.1-0.8-0.2-0.8c-0.3-0.1-0.6-0.4-0.6-0.5c0.2-0.6-0.3-0.9-0.5-1.3c-0.5-1.2-1.1-2.4-1.8-3.6
						c-0.7-1.2-1.4-2.5-1.9-3.9c-0.2-0.6-0.4-1.3-0.7-1.8c-0.8-1.3-1.1-2.8-1.4-4.2c-0.2-1-0.4-2-0.8-2.9c-0.3-0.7-0.4-1.2-0.3-1.9
						c0.1-0.6,0-1.1,0-1.7c-0.1-1.2-0.5-2.3-0.8-3.4l-0.1-0.2c-0.1,0.1-0.2,0.2-0.2,0.3c0.1,0.7,0.2,1.4,0.4,2.1
						c0.7,2.8,0.4,4.3-0.3,6.5c-0.6,0.3-0.3,0.9-0.7,1.4c-0.7,0.7-1.2,1.6-2,2.3c-1.5,1.4-3.5,2-5.3,2.9c-0.4,0.2-0.9,0.4-1.3,0.4
						c-1.1,0.2-2.2,0.2-3.3,0.1c-1.3-0.1-2.7-0.1-4-0.6c-0.8-0.3-1.8-0.2-2.6-0.6c-0.3-0.1-0.5-0.4-0.8-0.4
						c-1.2-0.1-2.2-0.8-3.2-1.4c-1-0.7-2.1-1.2-3-2l-0.3,0l0,0.2c0.5,0.7,1.6,1.7,2.3,2.2c1.5,1,3.1,1.9,4.5,3
						C104.3,103.5,104.5,103.6,104.6,103.9 M106.3,71.6c0.3,0,0.4,0,0.5,0.1c0.2,0,0.5,0,0.4,0.2c0,0.2-0.3,0.1-0.5,0.1
						c-0.2,0-0.5-0.2-0.6,0.1c0,0.2,0.3,0.1,0.5,0.2c0.4,0.4,1,0.5,1.5,0.4c0.7-0.1,1.3-0.3,1.8,0.2l0.4,0c0.4-0.4,0.8-0.1,1.2-0.1
						c0.4,0,0.9,0.3,1.2,0.1c0.5-0.3,0.7,0,1,0.1c0.5,0.2,0.7,0.3,1,0.4c0.6,0.2,0.1,0.3,0,0.5c0,0.1-0.1,0.3,0.1,0.4l0.4,0
						c0.2-0.1,0.5-0.3,0.2-0.6c0.2-0.2,0.4-0.4,0.6-0.5c-0.4-0.3-0.2-0.6,0-0.9l-0.3-0.3c-0.3-0.2-0.2,0.1-0.2,0.3
						c0,0.4-0.2,0.5-0.5,0.4c-0.3,0-0.4-0.2-0.3-0.4c0.1-0.3,0.2-0.7-0.4-0.8c0-0.4-0.2-0.5-0.6-0.3l-0.2-0.1c-1-0.4-2.2-1.3-3-2.2
						c-0.5-0.5-0.8-0.5-1.2,0.1c-0.2,0.3-0.3,0.3-0.5,0.2c-0.2-0.2-0.4-0.2-0.6-0.3c-0.5-0.4-0.6-0.4-0.6,0.2
						c-0.1,0.4-0.1,0.7-0.6,0.6c-0.3-0.1-0.6-0.2-0.9,0.1c-0.2-0.4-0.9,0-1-0.7c-0.1-0.4-0.6-0.7-1.1-0.8c-0.5,0.5-0.6,0-0.7-0.3
						c-0.1-0.2,0.1-0.4-0.1-0.6c-0.4-0.4-0.8-0.9-0.9-1.5c-0.1-0.3-0.6-0.4-0.7-0.8c-0.1-0.4-0.5,0.3-0.8,0.1l-0.1,0
						c-0.5-0.1-0.7,0-0.7,0.5c0,0.5-0.2,0.8-0.7,1c-0.9,0.3-0.9,0.3-0.8,1.1c0,0.2,0.2-0.1,0.1,0.1l-0.2,0.2
						c-0.9,0.8-1.3,0.8-2.4,0.2c-0.4-0.2-0.5,0.3-0.9,0.2c-0.2,0-0.2,0.3-0.1,0.5c0.1,0.4-0.6,0.8,0,1.2L94.7,70
						c-0.3-0.1-0.6,0.1-0.9,0.2c-0.3,0.1-0.3-0.4-0.7-0.4c-0.3,0-0.6,0-1-0.1c-0.5-0.1-0.2-0.7-0.5-0.8l-0.1-0.1l-0.3,0
						c-0.1,0-0.2,0.1-0.1,0.2c0.2,0.2,0.2,0.4,0.1,0.6l-0.1,0.2l-0.2-0.1c-0.2-0.2-0.4-0.6-0.6-0.7c-0.4-0.1-0.4-0.5-0.7-0.6
						c-0.2-0.1-0.5,0.3-0.8,0c-0.4-0.5-0.8,0-1.2,0.2c-0.5,0.3-0.1,0.6-0.1,0.9c0,0.2,0.1,0.3,0.2,0.4c0.1,0.1,0.1,0.2,0,0.2l-0.3,0
						c-0.2-0.2-0.4-0.4-0.4-0.5c0.1-0.5-0.5-0.3-0.6-0.6c-0.1-0.2-0.4,0.3-0.6-0.1c-0.3,0.3-1,0.3-1.1,0.7c-0.1,0.3-0.4,0.5-0.4,0.8
						c0,0.3-0.2,0.4-0.5,0.5c-0.5,0.1,0.1,0.5,0,0.7c-0.3,0.6-0.8,0.7-1.2,0.2l-0.1-0.4c-0.1-0.3-0.3-0.3-0.5-0.2
						c-0.3,0.2-0.6,0.4-0.2,0.7c0.2,0.2,0.2,0.5-0.2,0.5c-0.3,0-0.5,0.1-0.6,0.3c-0.2,0.3-0.3,0.9-0.4,0c0-0.2-0.3-0.6-0.6-0.4
						c-0.2,0.1-0.5,0.2-0.5,0.6c0,0.5-0.1,0.9-0.1,1.4c0,0.1,0,0.3-0.1,0.4c-0.2,0.1-1.1-0.1-1.3-0.3c-0.1-0.1,0.1-0.6-0.3-0.2
						c-0.2,0.2-0.5,0-0.7,0c-0.3,0.1-0.3,0.4-0.2,0.6c0.2,0.3,0.1,0.5-0.2,0.7c-0.3,0.3-0.7,0.3-1,0.2c-0.5-0.1-1.1-0.3-1,0.6
						c-0.7,0.4-0.9,1.4-1.7,1.7c-0.3,0.1-0.7,0.6-0.7,0.9c-0.1,0.5-0.4,0.7-0.7,1c-0.5,0.5-1.2,0.8-1.8,1.2
						c-0.2,0.2-0.4,0.4-0.7,0.4c-0.3-0.1-0.5-0.1-0.8-0.1c-0.3,0-0.4,0.3-0.2,0.5c0.3,0.3-0.1,0.5-0.2,0.3c-0.2-0.3-0.6,0-0.8-0.2
						c-0.1-0.1-0.2,0-0.6,0.8c-0.1,0.2-0.2,0.4-0.4,0.5c-0.3,0.4-0.4,0.6-0.2,1.1c0.1,0.2,0.1,0.6-0.1,0.7c-0.3,0.1-0.6,0-0.2,0.4
						c0.1,0.2,0.4,0.3,0.2,0.6c-0.2,0.4,0.2,0.8,0.2,1.2c0,0.4-0.2,0.8,0.1,1.1c-0.5,0.4,0.1,0.8-0.1,1.1c0.4,0.4-0.4,0.6-0.2,1
						c0.1,0.2,0.2,0.5,0.4,0.7c0.1,0.1,0.2-0.3,0.4-0.1c0.1,0.2,0,0.3-0.1,0.5c-0.3,0.3-0.2,0.8-0.3,1.2l0.1,0.2l0.2-0.2l0.2-0.3
						c0.2-0.8,0.8-1.4,1.2-2.1c0-0.1,0.3-0.4,0.4-0.1c0.1,0.6,0.3,0.4,0.5,0.2c0.3-0.6,1.3-0.1,1.5-0.9l0.2,0.2
						c0.1,0.2,0.4,0.2,0.5,0c0.1-0.5,0.4-0.4,0.7-0.4c0.5,0.1,0.7-0.2,1-0.5c0.4-0.4,0.8-0.8,1.3-0.8c1.8-0.2,3.3-1.2,5-1.5
						c0.6-0.5,1.4-0.2,2.1-0.6c0.1-0.1,0.3,0,0.5,0.1c0.8,0.7,1.7,1.2,2.6,1.6c0.3,0.1,0.3,0.3,0.2,0.5c0,0.4,0.1,0.5,0.5,0.3
						c1.2-0.5,2.5-1,3.7-1.5c0.2-0.1,0.4-0.3,0.7-0.4l0.3-0.1c0-0.1-0.2-0.1-0.3-0.2c-0.2-0.1-0.2-0.3-0.1-0.5
						c0-0.3,0.1-0.5-0.1-0.8c-0.5-0.4-0.2-0.9-0.2-1.4c0-0.1,0.3-0.3,0.5-0.4c0.1,0,0.2,0.4,0.3,0.1c0.1-0.2,0-0.6,0.1-0.8
						c0.1-0.2,0.5-0.1,0.7-0.5c0.2-0.5,0.7-1,1.2-1.4c0.5-0.5,1-1.2,1.6-1.5c0.7-0.3,1-1.2,1.9-1.2l0.2-0.1c0-0.5,0.4-0.6,0.7-0.8
						c0.2-0.2,0.6-0.2,0.8-0.3c0.3-0.1,0.6-0.4,0.9-0.4c0.6,0,0.4-0.6,0.4-0.5c0.8,0.2,0.7-0.4,0.8-0.9c0-0.1,0.1-0.3,0.2-0.1
						c0.3,0.4,0.5,0.1,0.8-0.1l0.3-0.4c0.3,0,0.1,0.3,0.2,0.4c0.2,0.3,0.3,0,0.4-0.1c0.3-0.4,0.4-0.9,1.1-0.7l0.2-0.1
						c0.2-0.9,0.9-0.6,1.4-0.5c0.2,0,0.5,0.1,0.7,0.1c0.1,0,0.2-0.1,0.2-0.3c0-0.3-0.2-0.2-0.3-0.1c-0.2,0.2-0.4,0.1-0.5,0
						c-0.2,0-0.6,0.1-0.5-0.3c0-0.3-0.2-0.7,0.4-0.9C104.8,71.6,105.7,71.7,106.3,71.6 M62.9,167.5c0-0.3,0-0.4,0.1-0.5
						c0-0.3,0.3-0.5,0.5-0.5c0.3-0.1,0.5,0.3,0.5,0.4c-0.2,0.6,0.7,0.4,0.6,0.9c0,0.1,0.2,0.3,0.4,0.5c0.3-0.3,0.1-0.5-0.1-0.7
						c0.5-0.3,0.1-0.6,0-0.9c0-0.2-0.2-0.3,0.1-0.5c0.2-0.1,0.1-0.3-0.1-0.5c-0.2-0.2-0.5-0.4-0.1-0.7c-0.2-0.3-0.4-0.5-0.6-0.8
						c-0.2-0.2-0.1-0.4,0.1-0.6c0.2-0.1,0.2-0.4,0.2-0.5c-0.2-0.3,0-0.9-0.6-1c0-0.4,0.7-0.6,0.4-1.1l0-0.1c0-0.2,0.1-0.3,0.3-0.3
						c0.7-0.1,0.4,0.6,0.7,0.8c-0.2,0.5,0,1.1,0.2,1.5c0.2,0.5-0.1,1.2,0.5,1.6l0,0.4c-0.1,0.5,0.3,0.9,0.1,1.4
						c-0.2,0.6,0.5,0.9,0.5,1.4c0,0.1,0,0.4,0.1,0.5c0.4,0.9,0.2,1.9,0.8,2.7c0.1,0.1,0,0.3,0.2,0.2l0.1-0.2c0-0.1,0.1-0.3,0-0.4
						c-0.4-1.4-0.9-2.8-0.6-4.3c0-0.2,0-0.3-0.2-0.3c-0.5,0-0.4-0.5-0.4-0.7c-0.1-0.9-0.6-1.7-0.4-2.6c0-0.2,0.1-0.4-0.1-0.5
						c-0.4-0.3-0.4-0.8-0.3-1.2c0.1-0.4-0.1-0.7-0.2-1c-0.1-0.2-0.2-0.4-0.2-0.6c0.2-0.9-0.3-1.8,0-2.7c0.1-0.2,0.1-0.4,0-0.7
						c-0.1-0.3-0.3-0.5-0.2-0.9c0.1-0.3-0.1-0.7,0-1.1l-0.1-0.2c-0.2,0-0.1,0.2-0.2,0.2c-0.4,0.3-0.4,0.7-0.4,1.1
						c0,0.4-0.3,0.7-0.4,1.1c0,0.1-0.1,0.3-0.3,0.1c-0.3-0.4-0.5-0.1-0.8,0.1c-0.3,0.3-0.7,0.4-0.8,0.9c-0.1,0.2-0.4,0-0.6,0
						l-0.1-0.2c0.1-0.1,0.4-0.2,0.1-0.3c-0.2-0.1-0.4-0.1-0.4,0.2c0,0.3-0.1,0.5-0.3,0.7c0.5,0.6-0.1,1.3,0.1,2
						c0.3,1.3,0.4,2.6,0.4,3.9c0,0.3,0.2,0.4,0.2,0.6c0.1,0.4,0.3,0.8,0.2,1.3c-0.1,0.3-0.3,0.8,0.4,0.9c-0.2,0.8,0.4,1.5,0.4,2.3
						c0,0.6,0.1,1.3,0.6,1.8l0.2,0.1l0.1-0.2c0-0.2,0-0.3,0-0.5C63.1,169,63.2,168.2,62.9,167.5 M46.6,175.5
						c-0.2-0.3,0.7-0.6,0.6-1.2l0.3,0l0.2,0.3c-0.1,0.5,0.1,1.1-0.4,1.5c-0.1,0.1-0.1,0.3,0,0.5c0.6,0.4,0.5,0.4,0.6,0.8
						c0.2,1.2,0.4,2.5,0.7,3.6c0.1,0.4,0.1,1,0.4,1.4c-0.3,0.6,0.7,0.8,0.4,1.5c-0.1,0.2,0.2,0.3,0.4,0.3c0.2-0.1,0.2-0.3,0.2-0.4
						c-0.1-0.3-0.4-0.6-0.4-0.9c0-0.8-0.2-1.6-0.5-2.3c-0.3-0.7,0.1-1.5-0.5-2.2c0.4-0.3-0.8-1.1,0.3-1.3c0.3-0.1,0-0.5-0.2-0.6
						c-0.3-0.3-0.4-0.4-0.4-0.5c0-0.4,0.1-0.7,0.1-1.1c0-0.2,0.1-0.4,0-0.5c-0.1-0.4-0.4,0.2-0.5,0c-0.1-0.3-0.2-0.6-0.3-0.8
						c-0.1-0.4,0.2-0.8-0.1-1.2c-0.2-0.3-0.1-0.8,0.1-1.2c0.2-0.6-0.5-0.6-0.5-0.9c0.2-0.8-0.2-1.5-0.1-2.3c0-0.1,0-0.3-0.2-0.3
						l-0.1,0.2c-0.1,1.4-0.6,2.7,0.1,4.1c0.1,0.1,0,0.6-0.2,0.6c-0.2,0-0.5-0.3-0.6-0.5c-0.1-0.1,0-0.4,0-0.5c0-0.2,0.1-0.6-0.1-0.5
						c-0.2,0-0.6,0.1-0.7,0.3c-0.1,0.4-0.6,0.6-0.4,0.9c0.4,0.8,0,1.5,0,2.3c0,0.2-0.2,0.4-0.3,0.6c-0.1,0.3,0.4,0.1,0.4,0.3
						c-0.1,0.5,0.2,1,0.1,1.4c-0.1,0.6,0.3,1.1,0.1,1.7c-0.2,0.7,0.4,1,0.6,1.6c0.1,0.3,0,0.6,0,0.9c-0.1,0.8-0.1,0.8,0.7,0.6l0.3,0
						c0.3,0.1,0.3-0.1,0.4-0.4c0.2-0.6-0.3-1.1-0.1-1.7c0.2-0.4,0-0.9-0.2-1.1C46.6,177.4,46.8,176.6,46.6,175.5 M70.6,160.8
						c-0.1,0.6-0.1,1-0.2,1.5l-0.1,0.2l-0.1-0.2c-0.2-0.6-0.6-1-0.4-1.8c0.1-0.4-0.2-0.9-0.1-1.4c0-0.2,0-0.3-0.2-0.3
						c-0.5,0-0.3-0.3-0.3-0.6c0.1-0.5,0.1-1.1,0.2-1.6c0-0.2,0.1-0.5-0.1-0.6c-0.4-0.3-0.3-0.6-0.3-1c0.1-0.9-0.2-1.8,0-2.7
						c0.1-0.2-0.2-0.2-0.4-0.3c-0.2,0-0.4-0.1-0.4,0.2c-0.1,0.4-0.3,0.9-0.1,1.2c0.4,0.7,0,1.3,0.2,2c0.2,0.6,0.2,1.4,0.3,2.1
						c0.1,0.6-0.2,1.4,0.4,1.9c0.2,0.2,0,0.4,0.1,0.6c0.1,0.6-0.1,1.3,0.2,1.8c0.3,0.6,0.2,1.2,0.6,1.7c0.3,0.5,0.3,1.1,0,1.4
						c-0.2,0.3-0.3,0.7-0.3,1c0,0.5-0.2,0.5-0.6,0.4l-0.2,0.1l0.1,0.2c0.4,0,0.5,0.4,0.7,0.6c0.2,0.1,0.4,0.2,0.5-0.2
						c0.1-0.3,0-0.7,0.4-0.9c-0.4-0.3-0.3-0.8-0.1-1c0.6-0.7,0.1-1.6,0.8-2.2c0-1.4,0.7-2.6,0.7-4c0-0.7,0-1.4,0.5-1.9
						c0.1-0.1,0.1-0.4,0.1-0.7L72,156c-0.1-0.1-0.3,0-0.3,0.1c-0.1,0.4-0.1,0.7-0.2,1.1l-0.2,0.1l-0.2-0.1c-0.2-0.5,0.1-1.6,0.5-1.5
						c0.7,0.1,0.6-0.3,0.9-0.7c0.3-0.4,0.2-0.6,0.1-1.1c-0.1-0.5,0.3-1.2,0.1-1.6c-0.3-0.6,0.1-1.1-0.1-1.6c-0.2-0.5-0.1-1-0.1-1.6
						c0-0.1,0.1-0.4-0.1-0.4c-0.1,0-0.4,0.2-0.4,0.3c-0.2,0.7-0.4,1.4-0.2,2c0.5,1.3,0.2,2.5,0.1,3.7c0,0.5-0.2,0.1-0.4,0.1
						c-0.4-0.1-0.4-0.3-0.4-0.7c0-0.4,0.3-0.9,0-1c-0.6-0.2-0.3-0.5-0.4-0.8c0-0.2,0.3-0.6-0.2-0.7c-0.3-0.1-0.5,0.2-0.6,0.4
						c-0.2,0.3-0.2,0.5-0.1,0.9c0.2,0.6,0.3,1.2,0.1,1.8c0,0.2-0.1,0.4,0.2,0.4c0.8,0,0.6,0.5,0.5,0.9c-0.2,1.1-0.2,1.8,0.3,2.7
						c0,0.1,0.3,0.1,0.1,0.3C70.5,159.7,70.7,160.3,70.6,160.8 M92.9,91.4c0.1-0.5,0.1-1.1,0.2-1.7c0-0.4,0-0.4-0.4-0.2
						c-0.2,0.1-0.4,0-0.4-0.2c0.1-0.7-0.6-1-0.9-1.4c-0.2-0.2-0.4-0.3-0.6-0.1c-0.2,0.2-0.5,0.1-0.7,0.3c-0.3-0.2-0.9,0.8-1-0.3
						c0-0.2-0.2,0.1-0.3,0.1c-0.4,0.1-0.1,0.7-0.5,0.9c-0.1,0.1-0.3,0.4-0.4,0c0-0.3-0.1-0.5-0.4-0.4c-0.2,0-0.2,0.3-0.2,0.4
						c0,0.2,0,0.4-0.2,0.6c-0.5,0.5-0.4,1-0.1,1.6c0.1,0.3,0.6,0.8,0,1.3c-0.3,0.3,0.1,0.9,0.4,1.3l0.2,0c0-0.7,0.4-0.1,0.6-0.2
						c0.9-0.5,2-0.7,2.8-1.3c0.3-0.2,1-0.3,1.8-0.3C93.2,91.8,93.1,91.6,92.9,91.4 M57.5,162.8c0,0.4-0.2,0.8-0.7,1.4
						c-0.1,0.1-0.2,0.1-0.4,0.1c-0.2-0.1-0.2-0.3-0.1-0.4c0.4-0.4,0.4-0.8,0.2-1.3c-0.1-0.2-0.1-0.4,0.3-0.4c0.5,0,0.4-0.5,0.3-0.7
						c-0.1-0.2-0.5-0.2-0.7-0.1c0.5,0.8-0.6,0.3-0.6,0.7c0,0.2-0.4,0.2-0.4,0.5c-0.2,1.3-0.2,2.5,0.1,3.8c0.1,0.3,0.5,0.7-0.1,1
						c0,0-0.1,0.2,0.1,0.4c1,0.9,1,2.1,0.9,3.3c0,0.3,0.1,0.6,0.3,0.7c0.3,0.1,0.5,0.4,0.7,0.6l0.2,0l0.1-0.2
						c-0.4-0.6-0.2-1.2,0-1.7c0.2-0.5-0.6-1,0.1-1.4c-0.2-0.3-0.4-0.5-0.6-0.8c-0.2-0.2-0.2-0.4,0.1-0.6c0.2-0.2,0.3-0.5,0-0.5
						c-0.5-0.2-0.4-0.3-0.2-0.6c0.3-0.5,0.2-0.6-0.3-0.8c-0.3-0.1-0.4-0.3-0.2-0.5c0.2-0.2,0.5-0.4,0.8-0.6l0.2-0.1
						c0.1,0.1,0.1,0.2,0.1,0.4c0,0.3,0,0.5,0.1,0.8c0.4,1.2,0.6,2.4,0.7,3.6l-0.1,0.3c-0.4,0.4-0.4,0.4,0,0.5
						c0.3,0.1,0.2,0.3,0.4,0.4c0.3,0.4,0.1,0.9,0.4,1.4c0.2,0.5,0.4,0.9,0.5,1.5c0.1,0.4,0.1,0.9,0.3,1.4c0.1,0.2,0.1,0.3,0.3,0.3
						c0.4,0,0.2-0.3,0.3-0.5l0-0.1c-0.7-0.6-0.6-1.5-0.8-2.3c-0.1-0.5-0.3-1-0.2-1.5c0-0.5-0.5-0.9-0.5-1.4
						c-0.1-0.9-0.3-1.8-0.4-2.7c-0.1-0.8-0.2-1.6-0.3-2.4c0-0.3-0.3-0.4-0.2-0.7c0.2-1-0.2-2,0.1-3.1c0-0.1,0.1-0.3-0.1-0.4
						l-0.3-0.3c-0.1,0-0.2,0.2-0.2,0.3C57.6,160.8,57.1,161.8,57.5,162.8 M80.6,150.5c0.2-1.6,0.3-3.1,0.5-4.7
						c0-0.4,0.1-0.8-0.2-1.2l-0.1-0.2c-0.2,0-0.2,0.1-0.2,0.2c-0.1,1.4-0.3,2.7-0.4,4.1c0,0.4-0.3,0.8,0.1,1.2l0,0.4
						c-0.4,0.2-0.3,0.6-0.3,1c-0.1,2.7-0.8,5.4-1.2,8.1c0,0.1,0,0.3-0.1,0.4c-0.5,0.5-0.4,1.1-0.4,1.7c0,0.6-0.5,1-0.5,1.6
						c0,0.5-0.2,1-0.1,1.5c0.1,0.5-0.6,0.8-0.2,1.3c-0.4,0.3-0.1,1.4-1.1,1.1c-0.1,0-0.1,0.2,0,0.3c0.7,0.2,0.6,0.7,0.5,1.2
						c0,0.4-0.2,0.9-0.1,1.3c0,0.1,0.1,0.4,0.3,0.3l0.1-0.4l0.2-1.6c0.1-0.3,0.4,0,0.6-0.3c0.1-0.1,0.1-0.4-0.1-0.4
						c-0.1,0-0.4,0.4-0.4-0.1c0.1-0.7,0-1.5,0.5-2.2c0.1-1.6,0.8-3.2,0.8-4.8c0-0.7,0-1.4,0.5-2.1c0.1-0.2,0-0.5,0.2-0.7
						c0.3-0.2-0.2-0.4-0.1-0.7c0.1-0.2,0-0.7,0.1-0.8c0.5-0.4,0.3-0.9,0.4-1.4C80.3,153.4,80.4,152,80.6,150.5 M85.2,166.3
						c-0.1,1.1-0.2,2.2-0.4,3.3c0,0.1,0,0.3,0.1,0.3c0.1,0,0.2-0.2,0.2-0.3c0-1.5,0.8-2.8,0.8-4.3c0-0.2,0-0.3,0.1-0.5
						c0.4-0.5,0.5-1.1,0.2-1.8c-0.1-0.2-0.1-0.5,0-0.6c0.5-0.4,0.1-1.1,0.4-1.5c0.4-0.5,0.4-1.1,0.4-1.7c0.2-1.2,0.3-2.5,0.4-3.7
						c0-0.3,0-0.6,0.2-0.8c0.3-0.3,0.2-0.6,0.3-0.9c0.1-0.3,0.1-0.5-0.2-0.7c0.5-0.2,0-0.5,0.1-0.7c0-0.3-0.2-0.4-0.2-0.7
						c0.1-1,0.2-1.9,0.1-2.9c-0.1-0.7,0.1-1.4,0.2-2.1c0-0.2,0.1-0.5-0.1-0.6l-0.3-0.3l-0.1,0.2c-0.1,0.5,0.1,1.1,0.1,1.6
						c-0.3,1.8,0,3.5-0.2,5.3c-0.1,1-0.2,2-0.3,3c-0.2,1.6-0.3,3.1-0.7,4.7c-0.4,1.5-0.9,3-0.9,4.6
						C85.4,165.5,85.3,165.9,85.2,166.3 M44.2,169.4l-0.2,0.2c-0.6,0.9-0.7,1.9-0.5,2.9c0.2,1.2,0.2,2.4,0.3,3.6
						c0.1,0.3,0.3,0.6,0.2,1c-0.1,0.4-0.2,0.8-0.1,1.1c0.3,1.1,0.4,2.3,0.7,3.4c0.3,1.1,0.2,2.3,0.7,3.4c-0.3,0.9,0.5,1.6,0.4,2.4
						c-0.1,0.4,0.6,0.7,0.5,1.2l0.2,0l0.2-0.2c0-0.1,0.1-0.3,0-0.4c-0.5-1-0.5-2.1-0.9-3.1c-0.1-0.3-0.2-0.6,0-0.7
						c0.4-0.3,0.2-0.4,0-0.6c-0.2-0.3-0.3-0.7-0.4-1.1c-0.2-0.6-0.1-1.3-0.3-1.9c-0.3-1-0.5-2-0.3-3c0.1-0.3-0.2-0.6-0.2-1
						c0-0.3-0.2-0.7-0.1-1c0.2-0.7-0.1-1.3-0.2-1.9c0-0.2-0.1-0.4-0.1-0.6c0.2-1.1-0.2-2.2,0.1-3.4L44.2,169.4 M83.5,153.9
						c-0.1,0.9-0.3,1.7-0.5,2.6c-0.4,1.5-0.3,3.1-0.8,4.7c-0.4,1.1-0.2,2.4-0.7,3.6c-0.3,0.8-0.2,1.8-0.6,2.7
						c-0.2,0.3,0,0.9-0.2,1.2c-0.3,0.4,0,0.8-0.1,1.2c-0.1,0.4-0.1,0.8-0.2,1.2c0,0.2,0,0.3,0.3,0.4c0.3,0,0.3-0.2,0.3-0.4
						c0.1-1.1,0.2-2.2,0.4-3.3c0-0.3,0-0.6,0.1-0.8c0.7-0.7,0.1-1.9,0.8-2.6l-0.1-0.2c-0.2-0.2-0.2-0.5-0.1-0.6
						c0.4-0.3,0.2-0.7,0.2-1.1c0-0.4,0.3-0.8,0.3-1.2c0-1.5,0.8-2.9,0.8-4.4c0-0.2,0.1-0.3,0.2-0.5l0.1-0.3c-0.5-0.6-0.1-1.2,0-1.8
						c0-0.6-0.1-1.3,0.4-1.8l0-0.5c-0.3-0.3-0.1-0.7-0.1-1c0.1-0.8,0.2-1.6,0.2-2.3c0-0.1,0-0.3-0.1-0.3c-0.1,0-0.1,0.3-0.2,0.3
						c-0.4,0.2-0.3,0.6-0.4,1C83.4,151,83.8,152.5,83.5,153.9 M58.8,161.2c0,0.4-0.1,0.8,0,1c0.3,0.4,0.3,0.8,0.4,1.2
						c0.1,0.4,0.2,0.9,0.1,1.3c0,0.2,0,0.4,0.2,0.5l0.3,1.9c0,0.5,0.2,0.8,0.4,0.6c0.3-0.2,0.8-0.2,0.8-0.8c0.1-1.2,0.2-1.2-0.2-2.1
						c-0.2-0.4-0.3-0.8-0.5-1.2c-0.1-0.4-0.3-0.8,0.4-0.8c0.2,0,0.3-0.4,0-0.5c-0.6-0.1-0.3-0.6-0.5-1c-0.1-0.2,0-0.6-0.1-1
						c-0.2-0.4-0.4-1.2-0.4-1.2c0,0.5-0.9,0.6-0.7,1C59.2,160.7,58.7,160.9,58.8,161.2 M40.8,173.5c0.1-0.6,0.1-1,0.2-1.5l-0.1-0.2
						l-0.2,0.2c-0.1,0.4,0,0.8-0.2,1.1c-0.5,0.8-0.3,1.8-0.5,2.6c0.4,0.4,0,1,0.2,1.4c0.3,0.6,0,1.1,0.1,1.6c0,0.2,0.1,0.4,0.1,0.6
						c0.2,1.1,0.5,2.1,0.3,3.2c0,0.3,0.1,0.5,0.1,0.8c0.2,1,0.6,2.1,0.7,3.1c0.1,0.9,0.5,1.7,0.7,2.6c0,0.2,0.2,0.2,0.4,0.2
						c0.2-0.1,0.2-0.3,0.1-0.3c-0.4-0.8-0.5-1.7-0.7-2.5c-0.2-1-0.4-2-0.7-3c-0.2-0.8-0.4-1.5,0.2-2.2c0.1-0.1,0.1-0.3,0-0.4
						c0-0.1,0-0.3-0.2-0.1c-0.1,0.1,0,0.4-0.2,0.4c-0.2,0-0.1-0.3-0.1-0.5c0-0.3-0.3-0.5-0.2-0.9c0.3-0.7,0-1.5-0.1-2.2
						c-0.1-0.7,0.2-1.4,0-2C40.6,174.7,40.8,174.1,40.8,173.5 M43.1,180.5c0-0.4,0.4-1,0-1.5c-0.4-0.5-0.3-0.9-0.2-1.4
						c0.1-0.7-0.1-1.3-0.6-1.8c-0.1-0.1-0.1-0.3-0.3-0.2l-0.1,0.2c0,0.4-0.2,0.9,0.1,1.3c-0.8,0.9,0.1,1.9-0.3,2.8
						c-0.1,0.2,0.1,0.3,0.3,0.3c0.2,0,0.2,0.1,0.2,0.3c-0.2,0.8,0.3,1.5,0,2.3c-0.2,0.5,0,0.8,0.5,1.1c0.3,0.2,0.5,0.5,0.7,0.9
						c0,0.1-0.4,0.3-0.5,0.5c-0.2,0.2,0.1,0.4,0.2,0.6l0.2,0.1c0-0.6,0.5-0.7,0.9-1l0.1-0.2c-0.7-0.5-0.1-1.2-0.4-1.7
						c-0.2-0.3,0.3-1.2-0.7-1c-0.1,0-0.2-0.2-0.1-0.3C43,181.3,43,181,43.1,180.5 M73.7,164.8c-0.1,0.5-0.1,0.8-0.1,1.2
						c0,0.1-0.2,0.4,0.1,0.4c0.1,0,0.4-0.3,0.4-0.3c-0.2-0.6,0.3-1,0.2-1.6c0-0.4,0.1-0.8,0.1-1.2c0.1-0.3,0.4-0.5,0.4-1
						c0-0.4,0-1,0.2-1.2c0.4-0.3-0.1-0.7,0.1-0.9c0.4-0.3-0.2-0.5,0-0.7c0.4-0.4,0.4-1,0.4-1.5c0-0.6,0.3-1.1,0.5-1.6
						c0.1-0.5-0.1-1.2,0.2-1.6c0.4-0.5,0-1,0.1-1.5c0.1-0.3,0.1-0.6,0.1-1c0-0.4,0.4-0.6,0.4-0.9c0.3-2.5,0.3-5,1-7.4
						c0.2-0.5,0.3-1.1,0.1-1.6c-0.4,0.4-0.3,1-0.3,1.5c0,0.5-0.4,0.7-0.4,1.1c-0.1,1.1-0.3,2.1-0.3,3.2c0,1.1-0.5,2-0.6,3
						c-0.1,1,0,2.1-0.6,3c0,1.7-0.6,3.3-0.8,4.9c-0.1,0.6,0,1.4-0.3,1.9c-0.4,0.6-0.1,1.4-0.5,1.9C73.7,163.6,73.9,164.3,73.7,164.8
						 M67.8,165.7c0,0.2-0.2,0.6,0,0.6c0.2,0.1,0.4-0.2,0.5-0.5c0.1-0.3,0.6-0.5,0.1-0.9c0.2-0.5-0.2-1,0.1-1.6
						c0.1-0.2,0-0.4-0.1-0.6c-0.1-0.4-0.4-0.8-0.3-1.2c-0.5-0.4,0-1-0.3-1.5c-0.2-0.3-0.2-0.4-0.5-0.2c-0.1,0.1-0.2,0.2-0.3,0
						c0-0.1,0-0.3,0.1-0.4c0.6-0.4,0.7-0.9,0.4-1.5c-0.1-0.2-0.2-0.3-0.4-0.1c-0.4,0.6-0.8,1.2-0.6,2c0.2,0.8,0.6,1.6,0.4,2.4
						c-0.2,0.7,0,1.3,0.4,1.9c0.1,0.2,0.2,0.5,0.5,0.5c0.3,0.1,0.2,0.2,0,0.3C67.7,165.2,67.9,165.5,67.8,165.7"/>
					<path id="XMLID_35_" class="st2" d="M157.8,226c0.1-0.5,0.8-0.4,0.9-0.7c0.2-0.5,0.8-0.3,1-0.9c0.1-0.4,0.7-0.7,1.1-1
						c0.4-0.3,2.4-3.1,2.4-3.5c0-0.9,0.5-1.8,0.1-2.7c0.3-1.2-0.2-2.3-0.3-3.4c0-0.7-0.1-1.4,0-2.1l0.1-0.2l0.2,0.2
						c0.6,0.6,1,1.5,1.8,2c0.2,0.1,0.1,0.8-0.1,1.1c-1.3,1.7-1.3,2.4-1.2,4.5c0.1,1.7,0.7,3.3,1,4.9c0,0.2,0.1,0.3,0.1,0.5
						c-0.2,0.6,0.2,0.9,0.5,1.2c0.2,0.2,0.5,0.3,0.7,0.6l0.3,0.2c0.6-0.4,1-0.1,1.6,0.1c0.5,0.2,1.2,0.2,1.8,0.2
						c0.8,0.1,1.5,0,2.1-0.4c0.4-0.2,0.9-0.5,1.4-0.3c0.4,0.2,0.7-0.2,1-0.2c0.4,0-0.1-0.3,0-0.4c0.2-0.2,0.4,0,0.7,0
						c0.2,0,0.2-0.2,0.2-0.3c0-0.2,0-0.4,0.4-0.4c0.4,0,0.5-0.6,0.7-0.7c0.6,0,0.5-0.4,0.5-0.7c0.1-0.3,0.8-1,1.1-1.1
						c0.8-0.4,1.5-0.7,2-1.5c0.1-0.2,0.3-0.4,0.5-0.4c1-0.2,1.7-1,2.7-1.4c0.8-0.3,1.4-1,2.4-0.8c0.4,0.1,0.2-0.4,0.4-0.4
						c0.7-0.3,1.4-0.6,2.1-0.7c0.6,0,1-0.2,1.3-0.6c0.5-0.5,1-0.4,1.5-0.3c0.4,0.1,0.4,0.4,0.1,0.7c-0.5,0.6-0.9,1.2-1.7,1.4
						c-0.2,0-0.2,0.3,0,0.5l0.1,0.2c-0.6,0.2-0.6,1.3-1.5,1.1c-0.3,0.3-0.6,0.7-0.9,1.1c-0.7,0.9-1.3,1.8-1.7,2.9
						c-0.1,0.2-0.3,0.3-0.5,0.5c-1.6,1.4-3.4,2.5-5.4,3.4c-0.2,0.1-0.4,0.2-0.5,0.5C171.7,227.5,164.7,226.8,157.8,226"/>
					<path id="XMLID_34_" class="st2" d="M89.7,115.7c0.3,0,0.5,0.1,0.7,0.4c0.2,0.3,0.5,0.6,0.7-0.1c0-0.1,0.2-0.1,0.3-0.1
						c0.3,0,0.6,0,1,0.1c1.5,0.4,2.9-0.2,4.3-0.6c0.2-0.1,0.5-0.2,0.5-0.3c0.1-0.6,0.6-0.5,0.8-0.3c0.3,0.3,0.2,0.1,0.5-0.1
						c0.4-0.4,1.1-0.4,1.6-0.8c0.1-0.1,0.4-0.1,0.4-0.3c0.3-0.9,0.9-1.5,1.8-1.8c0.3-0.1,0.7-0.1,0.9-0.5c0.2-0.2,0.6,0.3,0.8-0.1
						c0.2-0.4,0.7-0.1,1-0.2c0.7-0.3,1.1-0.7,1.7-1.1c0.7-0.5,0.7-0.5,0.8-1.1c0-0.2,0.1-0.5,0.1-0.7c0.1-0.7,0-0.7-0.5-1.4
						c-0.3-0.4-0.6-1-0.8-1.5c0.6,0.2,1.2,0.3,1.3,1.1c0,0.2,0.3,0.4,0.5,0.7c0.3,0.4,0.5,0.7,0.4,1.2c-0.2,0.6,0.3,1.2,0.1,1.8
						c0.7,1.5-0.3,2.7-1,3.8c-0.1,0.2-0.6,0.3-0.7,0.6c-0.7-0.2-1.2,0.7-2,0.4c-0.6-0.2-1.4-0.3-2,0.3c-0.2,0.1-0.3,0.2-0.4,0.4
						c-0.5,0.8-1,1.5-1.5,2.2c-0.3,0.5-0.7,0.7-1.1,0.6c-1.4-0.3-2.8,0.1-4.2-0.1c-1.1-0.2-2.2-0.2-3.3-0.4c-1-0.2-1.8-0.6-2.4-1.4
						C89.6,116,89.7,115.8,89.7,115.7"/>
					<path id="XMLID_33_" class="st2" d="M109.6,122.8c-0.9-0.1-1.7-0.2-2.5,0.2c-0.4,0.2-0.9,0.1-1.4,0.2c-1.2,0.3-2.3,1-3.4,1.5
						c-0.6,0.2-1.1,0.4-1.7,0.5c-0.5,0-2.2,0.5-2.5,0.6c-1,0.6-1.9,1.4-2.6,2.5c-0.3,0.6-0.8,1-1.3,1.4c-0.3,0.2-0.5,0.2-0.7,0
						c-0.2-0.1-0.1-0.5,0-0.6c0.7-1.1,1.1-2.2,1.7-3.3c0.1-0.2,0.3-0.6,0.6-0.7c0.2-0.1,0.4-0.3,0.5-0.4c0.4-0.3,1.1-0.6,1.6-0.2
						c0.3,0.2,0.6-0.1,0.8,0.2c0.2,0.3,0.6-0.1,1-0.2c0.5,0,1-0.1,1.5-0.2c0.5-0.1,2-1,2.3-1.4c0.4-0.6,1.3-0.7,1.4-1.5
						c0-0.1,0.2-0.2,0.3-0.1c0.6,0.1,1.1-0.1,1.6-0.3c0.5-0.2,1.1,0.3,1.6-0.2c0.1-0.1,0.4,0,0.5,0c1.3,0.3,2.6-0.1,3.9,0.1
						c0.4,0.1,0.8-0.3,1.3-0.1c0.3,0.1,0.5,0.4,0.8,0.4c0.3,0,0.2,0.2,0.2,0.4c-0.1,0.5-0.3,0.8-0.9,1c-0.6,0.2-1.2,0.4-1.9,0.3
						C111.4,122.6,110.4,123.2,109.6,122.8"/>
					<path id="XMLID_32_" class="st2" d="M110.1,126.8c0.3,0,0.6,0.1,0.8,0.1c0.7,0,0.6,0.7,1.1,0.9c0,0,0,0.6-0.2,0.6
						c-0.7-0.2-1,0.5-1.5,0.7c-1.2,0.4-2.7,0.9-3.8,0.7c-0.7-0.1-1.3,0.3-1.9,0.4c-0.3,0.1-0.4,0.2-0.4-0.2c0-0.3-0.9-0.4-1-0.1
						c-0.1,0.4-0.3,0.6-0.6,0.6c-0.5,0-0.9,0.3-1.4,0.2c-0.5-0.1-0.8-0.2-0.9-0.7c0-0.2-0.2-0.3-0.5-0.1c-0.1,0.1-0.1-0.1-0.1-0.2
						c0-0.4,0.2-0.6,0.6-0.8c1-0.4,2-0.6,3-0.7c1.1-0.2,2.2-0.5,3.3-0.5c0.3,0,0.6-0.2,1-0.4C108.7,126.6,108.7,126.6,110.1,126.8"
						/>
					<path id="XMLID_31_" class="st2" d="M107.7,136.3c0.2,0,0.5,0,0.6,0.3l0.2,0.2c0,0.1-0.2,0.2-0.3,0.1c-0.4-0.1-0.5,0.1-0.6,0.5
						c-0.1,0.2-0.1,0.8-0.7,0.3c-0.3-0.2-0.8-0.3-1.2-0.4c-1-0.2-2.1,0.1-3,0.7c-0.1,0.7-0.7,1.1-0.6,1.9c0.2,1.1,0.7,2,1,3
						c0.1,0.4,0,0.4-0.2,0.6c-0.1,0.1-0.2,0.1-0.2,0l0-0.3c-0.3-0.8-0.9-0.9-1.6-0.9c-0.4,0-0.8-0.4-0.6-0.8
						c0.1-0.1,0.2-0.2,0.3-0.4c0.3-0.8,0.3-0.8,0-1.5c-0.1-0.3-0.2-0.6,0-0.8c0.2-0.2,0.2-0.4,0.2-0.6c0.2-0.6,0.3-0.7,0.9-0.7
						c0.4,0,0.6,0,0.6-0.4c0-0.6,0.4,0,0.4-0.1c0.3-0.3,0.7-0.2,1-0.1c1,0.2,2,0.1,3-0.3C107.3,136.3,107.5,136.2,107.7,136.3"/>
				</g>
			</g>
		</g>
	</g>
</a>
</svg>
